<svg width="88" height="79" viewBox="0 0 88 79" fill="none" xmlns="http://www.w3.org/2000/svg">
<path d="M84.4082 26.9362C82.2121 21.7262 79.0282 16.9928 75.0332 12.9984C71.0478 8.99424 66.3251 5.80318 61.127 3.60205C55.7266 1.3117 50.0039 0.156738 44.0957 0.156738C38.1875 0.156738 32.4648 1.3117 27.0645 3.60205C21.8663 5.80318 17.1436 8.99424 13.1582 12.9984C9.16317 16.9928 5.97934 21.7262 3.7832 26.9362C1.49805 32.3489 0.345703 38.0845 0.345703 44.0062C0.345703 56.9946 6.03906 69.2294 15.9609 77.5882L16.127 77.7252C16.6934 78.195 17.4062 78.4593 18.1387 78.4593H70.0625C70.7949 78.4593 71.5078 78.195 72.0742 77.7252L72.2402 77.5882C82.1523 69.2294 87.8457 56.9946 87.8457 44.0062C87.8457 38.0845 86.6836 32.3489 84.4082 26.9362ZM41.166 11.9021C41.166 11.4715 41.5176 11.1191 41.9473 11.1191H46.2441C46.6738 11.1191 47.0254 11.4715 47.0254 11.9021V19.7324C47.0254 20.163 46.6738 20.5154 46.2441 20.5154H41.9473C41.5176 20.5154 41.166 20.163 41.166 19.7324V11.9021ZM20.4629 46.1595C20.4629 46.5902 20.1113 46.9425 19.6816 46.9425H11.8691C11.4395 46.9425 11.0879 46.5902 11.0879 46.1595V41.8528C11.0879 41.4222 11.4395 41.0698 11.8691 41.0698H19.6816C20.1113 41.0698 20.4629 41.4222 20.4629 41.8528V46.1595ZM29.3203 26.1434L26.2832 29.1874C26.1364 29.3331 25.9381 29.4149 25.7314 29.4149C25.5248 29.4149 25.3265 29.3331 25.1797 29.1874L19.6523 23.6475C19.507 23.5003 19.4254 23.3016 19.4254 23.0945C19.4254 22.8874 19.507 22.6887 19.6523 22.5415L22.6895 19.4975C22.9922 19.194 23.4902 19.194 23.793 19.4975L29.3203 25.0374C29.623 25.3408 29.623 25.84 29.3203 26.1434ZM57.748 34.326L49.4961 42.5967C49.9844 44.427 49.5156 46.4531 48.0801 47.8919C47.5726 48.4016 46.9698 48.8059 46.3062 49.0817C45.6426 49.3576 44.9313 49.4996 44.2129 49.4996C43.4945 49.4996 42.7832 49.3576 42.1196 49.0817C41.456 48.8059 40.8532 48.4016 40.3457 47.8919C39.8372 47.3833 39.4339 46.7791 39.1586 46.114C38.8834 45.4489 38.7417 44.736 38.7417 44.016C38.7417 43.2959 38.8834 42.583 39.1586 41.9179C39.4339 41.2528 39.8372 40.6486 40.3457 40.14C41.0238 39.4583 41.8694 38.9681 42.797 38.7189C43.7247 38.4697 44.7016 38.4703 45.6289 38.7207L53.8809 30.45C54.1836 30.1466 54.6816 30.1466 54.9844 30.45L57.748 33.22C58.0508 33.5234 58.0508 34.0128 57.748 34.326ZM61.9473 29.1972L58.9102 26.1532C58.7648 26.006 58.6832 25.8073 58.6832 25.6002C58.6832 25.3931 58.7648 25.1943 58.9102 25.0472L64.4375 19.5073C64.7402 19.2038 65.2383 19.2038 65.541 19.5073L68.5781 22.5513C68.8809 22.8547 68.8809 23.3539 68.5781 23.6573L63.0508 29.1972C62.9039 29.3429 62.7057 29.4247 62.499 29.4247C62.2924 29.4247 62.0941 29.3429 61.9473 29.1972ZM76.7129 46.1595C76.7129 46.5902 76.3613 46.9425 75.9316 46.9425H68.1191C67.6895 46.9425 67.3379 46.5902 67.3379 46.1595V41.8528C67.3379 41.4222 67.6895 41.0698 68.1191 41.0698H75.9316C76.3613 41.0698 76.7129 41.4222 76.7129 41.8528V46.1595Z" fill="#035476"/>
</svg>
