<svg width="84" height="74" viewBox="0 0 84 74" fill="none" xmlns="http://www.w3.org/2000/svg">
<path d="M75.9486 73.8475H8.24023C3.92546 73.8475 0.427734 70.3419 0.427734 66.0173V8.59539C0.427734 4.27081 3.92546 0.765137 8.24023 0.765137H75.9486C80.2633 0.765137 83.7611 4.27081 83.7611 8.59539V66.0173C83.7611 70.3419 80.2633 73.8475 75.9486 73.8475ZM21.2611 15.1206C17.6655 15.1206 14.7507 18.0421 14.7507 21.6458C14.7507 25.2495 17.6655 28.171 21.2611 28.171C24.8566 28.171 27.7715 25.2495 27.7715 21.6458C27.7715 18.0421 24.8566 15.1206 21.2611 15.1206ZM21.2611 30.7811C17.6655 30.7811 14.7507 33.7026 14.7507 37.3063C14.7507 40.91 17.6655 43.8315 21.2611 43.8315C24.8566 43.8315 27.7715 40.91 27.7715 37.3063C27.7715 33.7026 24.8566 30.7811 21.2611 30.7811ZM21.2611 46.4416C17.6655 46.4416 14.7507 49.3631 14.7507 52.9668C14.7507 56.5705 17.6655 59.4921 21.2611 59.4921C24.8566 59.4921 27.7715 56.5705 27.7715 52.9668C27.7715 49.3631 24.8566 46.4416 21.2611 46.4416ZM68.1361 24.2559V19.0357C68.1361 17.9547 67.2616 17.0782 66.1829 17.0782H33.6309C32.5522 17.0782 31.6777 17.9547 31.6777 19.0357V24.2559C31.6777 25.337 32.5522 26.2135 33.6309 26.2135H66.1829C67.2616 26.2135 68.1361 25.337 68.1361 24.2559ZM68.1361 39.9164V34.6962C68.1361 33.6152 67.2616 32.7387 66.1829 32.7387H33.6309C32.5522 32.7387 31.6777 33.6152 31.6777 34.6962V39.9164C31.6777 40.9975 32.5522 41.874 33.6309 41.874H66.1829C67.2616 41.874 68.1361 40.9975 68.1361 39.9164ZM68.1361 55.5769V50.3568C68.1361 49.2757 67.2616 48.3992 66.1829 48.3992H33.6309C32.5522 48.3992 31.6777 49.2757 31.6777 50.3568V55.5769C31.6777 56.658 32.5522 57.5345 33.6309 57.5345H66.1829C67.2616 57.5345 68.1361 56.658 68.1361 55.5769Z" fill="#035476"/>
</svg>
