<svg width="21" height="17" viewBox="0 0 21 17" fill="none" xmlns="http://www.w3.org/2000/svg">
<path d="M17.5 1.5H3.5C2.5335 1.5 1.75 2.2835 1.75 3.25V13.75C1.75 14.7165 2.5335 15.5 3.5 15.5H17.5C18.4665 15.5 19.25 14.7165 19.25 13.75V3.25C19.25 2.2835 18.4665 1.5 17.5 1.5Z" fill="white" stroke="#828282" stroke-width="2" stroke-linecap="round" stroke-linejoin="round"/>
<path d="M10.5 6.764C10.2718 6.48735 9.9855 6.26431 9.66144 6.11067C9.33739 5.95704 8.9835 5.87658 8.62488 5.875C7.245 5.875 6.125 7.05013 6.125 8.5C6.125 9.94987 7.245 11.125 8.62488 11.125C9.37213 11.125 10.0424 10.7811 10.5 10.236V6.764ZM14.875 8.5C14.875 9.94987 13.755 11.125 12.3751 11.125C10.9944 11.125 9.87525 9.94987 9.87525 8.5C9.87525 7.05013 10.9944 5.875 12.3751 5.875C13.755 5.875 14.875 7.05013 14.875 8.5Z" fill="white" stroke="#828282" stroke-width="2" stroke-linecap="round" stroke-linejoin="round"/>
</svg>
