<?xml version="1.0" standalone="no"?>
<!DOCTYPE svg PUBLIC "-//W3C//DTD SVG 20010904//EN"
 "http://www.w3.org/TR/2001/REC-SVG-20010904/DTD/svg10.dtd">
<svg version="1.0" xmlns="http://www.w3.org/2000/svg"
 width="78.000000pt" height="78.000000pt" viewBox="0 0 78.000000 78.000000"
 preserveAspectRatio="xMidYMid meet">

<g transform="translate(0.000000,78.000000) scale(0.100000,-0.100000)"
fill="#035476" stroke="none">
<path d="M191 631 c-7 -12 -21 -21 -33 -21 -20 0 -20 -1 -4 -19 9 -10 14 -25
11 -33 -5 -12 2 -15 34 -15 33 0 41 3 41 18 0 10 5 21 10 24 15 9 12 25 -4 25
-8 0 -21 9 -30 21 l-14 21 -11 -21z"/>
<path d="M362 630 c-7 -11 -19 -20 -27 -20 -8 0 -15 -4 -15 -10 0 -5 5 -10 10
-10 6 0 10 -14 10 -30 0 -27 2 -29 18 -21 10 6 29 7 42 4 20 -5 22 -3 16 12
-4 11 0 25 10 36 16 18 16 19 -3 19 -11 0 -27 9 -34 20 l-14 21 -13 -21z"/>
<path d="M497 532 c-35 -39 -9 -102 41 -102 28 0 62 34 62 60 0 27 -35 60 -63
60 -13 0 -31 -8 -40 -18z"/>
<path d="M202 434 c-39 -27 -25 -94 24 -108 27 -8 74 28 74 57 0 28 -9 41 -37
56 -28 14 -34 14 -61 -5z"/>
<path d="M417 403 c-4 -3 -7 -30 -7 -60 l0 -53 85 0 85 0 0 29 c0 17 5 33 10
36 6 4 10 -12 10 -39 l0 -46 -55 0 c-42 0 -57 -4 -62 -16 -9 -24 15 -34 84
-34 81 0 93 12 93 95 0 99 5 95 -124 95 -62 0 -116 -3 -119 -7z"/>
<path d="M126 294 c-9 -23 -7 -137 3 -152 5 -9 31 -12 92 -10 76 3 84 5 84 23
0 18 -8 20 -67 23 -86 4 -89 22 -4 22 l64 0 27 45 c14 25 23 50 20 55 -3 6
-52 10 -110 10 -85 0 -104 -3 -109 -16z"/>
<path d="M341 237 c-15 -25 -19 -43 -14 -70 l6 -37 83 0 c82 0 84 0 99 30 21
40 19 50 -9 50 -28 0 -51 24 -42 45 4 12 -5 15 -48 15 -51 0 -56 -2 -75 -33z"/>
<path d="M541 169 l-23 -40 44 3 c42 3 43 4 46 41 3 33 1 37 -21 37 -17 0 -29
-11 -46 -41z"/>
</g>
</svg>
