<svg width="32" height="31" viewBox="0 0 27 26" fill="none" xmlns="http://www.w3.org/2000/svg">
<path d="M26.2875 23.2229L25.9947 22.9646C25.1641 22.2245 24.4371 21.3759 23.8333 20.4415C23.1739 19.152 22.7787 17.7439 22.6708 16.2996V12.0457C22.6765 9.77718 21.8537 7.58467 20.3568 5.8801C18.86 4.17553 16.7922 3.07623 14.5419 2.78874V1.6779C14.5419 1.37302 14.4208 1.08061 14.2052 0.865026C13.9897 0.649437 13.6972 0.52832 13.3924 0.52832C13.0875 0.52832 12.7951 0.649437 12.5795 0.865026C12.3639 1.08061 12.2428 1.37302 12.2428 1.6779V2.80596C10.0127 3.11417 7.96992 4.22012 6.49273 5.91897C5.01555 7.61781 4.20407 9.79443 4.20861 12.0457V16.2996C4.10076 17.7439 3.70553 19.152 3.04611 20.4415C2.4527 21.3735 1.73739 22.2221 0.919166 22.9646L0.626389 23.2229V25.6512H26.2875V23.2229Z" fill="#BDBDBD"/>
</svg>
