<svg width="16" height="12" viewBox="0 0 16 12" fill="none" xmlns="http://www.w3.org/2000/svg">
<path d="M14.5 1C14.6326 1 14.7598 1.05268 14.8536 1.14645C14.9473 1.24021 15 1.36739 15 1.5V10.5C15 10.6326 14.9473 10.7598 14.8536 10.8536C14.7598 10.9473 14.6326 11 14.5 11H1.5C1.36739 11 1.24021 10.9473 1.14645 10.8536C1.05268 10.7598 1 10.6326 1 10.5V1.5C1 1.36739 1.05268 1.24021 1.14645 1.14645C1.24021 1.05268 1.36739 1 1.5 1H14.5ZM1.5 0C1.10218 0 0.720644 0.158035 0.43934 0.43934C0.158035 0.720644 0 1.10218 0 1.5L0 10.5C0 10.8978 0.158035 11.2794 0.43934 11.5607C0.720644 11.842 1.10218 12 1.5 12H14.5C14.8978 12 15.2794 11.842 15.5607 11.5607C15.842 11.2794 16 10.8978 16 10.5V1.5C16 1.10218 15.842 0.720644 15.5607 0.43934C15.2794 0.158035 14.8978 0 14.5 0H1.5Z" fill="#333333"/>
<path d="M7.00005 3.50004C7.00005 3.36743 7.05272 3.24025 7.14649 3.14649C7.24026 3.05272 7.36744 3.00004 7.50005 3.00004H12.5C12.6327 3.00004 12.7598 3.05272 12.8536 3.14649C12.9474 3.24025 13 3.36743 13 3.50004C13 3.63265 12.9474 3.75982 12.8536 3.85359C12.7598 3.94736 12.6327 4.00004 12.5 4.00004H7.50005C7.36744 4.00004 7.24026 3.94736 7.14649 3.85359C7.05272 3.75982 7.00005 3.63265 7.00005 3.50004ZM5.50405 2.64604C5.55061 2.69248 5.58755 2.74766 5.61276 2.80841C5.63796 2.86915 5.65094 2.93427 5.65094 3.00004C5.65094 3.06581 5.63796 3.13093 5.61276 3.19167C5.58755 3.25242 5.55061 3.30759 5.50405 3.35404L4.00405 4.85404C3.9576 4.9006 3.90242 4.93755 3.84168 4.96275C3.78093 4.98796 3.71581 5.00093 3.65005 5.00093C3.58428 5.00093 3.51916 4.98796 3.45841 4.96275C3.39767 4.93755 3.34249 4.9006 3.29605 4.85404L2.79605 4.35404C2.74956 4.30755 2.71268 4.25236 2.68752 4.19162C2.66236 4.13088 2.64941 4.06578 2.64941 4.00004C2.64941 3.86726 2.70216 3.73993 2.79605 3.64604C2.88993 3.55215 3.01727 3.49941 3.15005 3.49941C3.28282 3.49941 3.41016 3.55215 3.50405 3.64604L3.65005 3.79304L4.79605 2.64604C4.84249 2.59948 4.89767 2.56253 4.95841 2.53733C5.01916 2.51212 5.08428 2.49915 5.15005 2.49915C5.21581 2.49915 5.28093 2.51212 5.34168 2.53733C5.40242 2.56253 5.4576 2.59948 5.50405 2.64604ZM7.00005 7.50004C7.00005 7.36743 7.05272 7.24025 7.14649 7.14649C7.24026 7.05272 7.36744 7.00004 7.50005 7.00004H12.5C12.6327 7.00004 12.7598 7.05272 12.8536 7.14649C12.9474 7.24025 13 7.36743 13 7.50004C13 7.63265 12.9474 7.75982 12.8536 7.85359C12.7598 7.94736 12.6327 8.00004 12.5 8.00004H7.50005C7.36744 8.00004 7.24026 7.94736 7.14649 7.85359C7.05272 7.75982 7.00005 7.63265 7.00005 7.50004ZM5.50405 6.64604C5.55061 6.69248 5.58755 6.74766 5.61276 6.80841C5.63796 6.86915 5.65094 6.93427 5.65094 7.00004C5.65094 7.06581 5.63796 7.13093 5.61276 7.19167C5.58755 7.25242 5.55061 7.30759 5.50405 7.35404L4.00405 8.85404C3.9576 8.9006 3.90242 8.93754 3.84168 8.96275C3.78093 8.98796 3.71581 9.00093 3.65005 9.00093C3.58428 9.00093 3.51916 8.98796 3.45841 8.96275C3.39767 8.93754 3.34249 8.9006 3.29605 8.85404L2.79605 8.35404C2.74956 8.30755 2.71268 8.25236 2.68752 8.19162C2.66236 8.13088 2.64941 8.06578 2.64941 8.00004C2.64941 7.9343 2.66236 7.86919 2.68752 7.80846C2.71268 7.74772 2.74956 7.69253 2.79605 7.64604C2.84253 7.59955 2.89772 7.56267 2.95846 7.53752C3.0192 7.51236 3.0843 7.49941 3.15005 7.49941C3.21579 7.49941 3.28089 7.51236 3.34163 7.53752C3.40237 7.56267 3.45756 7.59955 3.50405 7.64604L3.65005 7.79304L4.79605 6.64604C4.84249 6.59948 4.89767 6.56253 4.95841 6.53733C5.01916 6.51212 5.08428 6.49915 5.15005 6.49915C5.21581 6.49915 5.28093 6.51212 5.34168 6.53733C5.40242 6.56253 5.4576 6.59948 5.50405 6.64604Z" fill="#333333"/>
</svg>
