<svg width="19" height="18" viewBox="0 0 19 18" fill="none" xmlns="http://www.w3.org/2000/svg">
<path d="M5.6325 1.57L4.38125 0.31875C2.28124 1.92 0.898745 4.3875 0.776245 7.1875H2.52625C2.58823 6.07783 2.89972 4.99644 3.43753 4.02384C3.97534 3.05123 4.72562 2.21247 5.6325 1.57ZM16.4737 7.1875H18.2237C18.0925 4.3875 16.71 1.92 14.6187 0.31875L13.3762 1.57C14.2792 2.21563 15.0262 3.05532 15.5622 4.02741C16.0982 4.99949 16.4097 6.07928 16.4737 7.1875ZM14.75 7.625C14.75 4.93875 13.315 2.69 10.8125 2.095V1.5C10.8125 0.77375 10.2262 0.1875 9.5 0.1875C8.77375 0.1875 8.1875 0.77375 8.1875 1.5V2.095C5.67625 2.69 4.25 4.93 4.25 7.625V12L2.5 13.75V14.625H16.5V13.75L14.75 12V7.625ZM9.5 17.25C9.6225 17.25 9.73625 17.2412 9.84999 17.215C10.4187 17.0925 10.8825 16.7075 11.11 16.1825C11.1975 15.9725 11.2412 15.745 11.2412 15.5H7.74125C7.75 16.4625 8.52875 17.25 9.5 17.25Z" fill="#828282"/>
</svg>
