<svg width="13" height="13" viewBox="0 0 13 13" fill="none" xmlns="http://www.w3.org/2000/svg">
<path d="M4.90625 0.65625C4.90625 0.515354 4.96222 0.380228 5.06185 0.2806C5.16148 0.180971 5.2966 0.125 5.4375 0.125H7.5625C7.7034 0.125 7.83852 0.180971 7.93815 0.2806C8.03778 0.380228 8.09375 0.515354 8.09375 0.65625C8.09375 0.797146 8.03778 0.932272 7.93815 1.0319C7.83852 1.13153 7.7034 1.1875 7.5625 1.1875H5.4375C5.2966 1.1875 5.16148 1.13153 5.06185 1.0319C4.96222 0.932272 4.90625 0.797146 4.90625 0.65625ZM7.5625 11.8125H5.4375C5.2966 11.8125 5.16148 11.8685 5.06185 11.9681C4.96222 12.0677 4.90625 12.2029 4.90625 12.3438C4.90625 12.4846 4.96222 12.6198 5.06185 12.7194C5.16148 12.819 5.2966 12.875 5.4375 12.875H7.5625C7.7034 12.875 7.83852 12.819 7.93815 12.7194C8.03778 12.6198 8.09375 12.4846 8.09375 12.3438C8.09375 12.2029 8.03778 12.0677 7.93815 11.9681C7.83852 11.8685 7.7034 11.8125 7.5625 11.8125ZM11.8125 0.125H10.2188C10.0779 0.125 9.94273 0.180971 9.8431 0.2806C9.74347 0.380228 9.6875 0.515354 9.6875 0.65625C9.6875 0.797146 9.74347 0.932272 9.8431 1.0319C9.94273 1.13153 10.0779 1.1875 10.2188 1.1875H11.8125V2.78125C11.8125 2.92215 11.8685 3.05727 11.9681 3.1569C12.0677 3.25653 12.2029 3.3125 12.3438 3.3125C12.4846 3.3125 12.6198 3.25653 12.7194 3.1569C12.819 3.05727 12.875 2.92215 12.875 2.78125V1.1875C12.875 0.905707 12.7631 0.635456 12.5638 0.436199C12.3645 0.236942 12.0943 0.125 11.8125 0.125ZM12.3438 4.90625C12.2029 4.90625 12.0677 4.96222 11.9681 5.06185C11.8685 5.16148 11.8125 5.2966 11.8125 5.4375V7.5625C11.8125 7.7034 11.8685 7.83852 11.9681 7.93815C12.0677 8.03778 12.2029 8.09375 12.3438 8.09375C12.4846 8.09375 12.6198 8.03778 12.7194 7.93815C12.819 7.83852 12.875 7.7034 12.875 7.5625V5.4375C12.875 5.2966 12.819 5.16148 12.7194 5.06185C12.6198 4.96222 12.4846 4.90625 12.3438 4.90625ZM12.3438 9.6875C12.2029 9.6875 12.0677 9.74347 11.9681 9.8431C11.8685 9.94273 11.8125 10.0779 11.8125 10.2188V11.8125H10.2188C10.0779 11.8125 9.94273 11.8685 9.8431 11.9681C9.74347 12.0677 9.6875 12.2029 9.6875 12.3438C9.6875 12.4846 9.74347 12.6198 9.8431 12.7194C9.94273 12.819 10.0779 12.875 10.2188 12.875H11.8125C12.0943 12.875 12.3645 12.7631 12.5638 12.5638C12.7631 12.3645 12.875 12.0943 12.875 11.8125V10.2188C12.875 10.0779 12.819 9.94273 12.7194 9.8431C12.6198 9.74347 12.4846 9.6875 12.3438 9.6875ZM0.65625 8.09375C0.797146 8.09375 0.932272 8.03778 1.0319 7.93815C1.13153 7.83852 1.1875 7.7034 1.1875 7.5625V5.4375C1.1875 5.2966 1.13153 5.16148 1.0319 5.06185C0.932272 4.96222 0.797146 4.90625 0.65625 4.90625C0.515354 4.90625 0.380228 4.96222 0.2806 5.06185C0.180971 5.16148 0.125 5.2966 0.125 5.4375V7.5625C0.125 7.7034 0.180971 7.83852 0.2806 7.93815C0.380228 8.03778 0.515354 8.09375 0.65625 8.09375ZM2.78125 11.8125H1.1875V10.2188C1.1875 10.0779 1.13153 9.94273 1.0319 9.8431C0.932272 9.74347 0.797146 9.6875 0.65625 9.6875C0.515354 9.6875 0.380228 9.74347 0.2806 9.8431C0.180971 9.94273 0.125 10.0779 0.125 10.2188V11.8125C0.125 12.0943 0.236942 12.3645 0.436199 12.5638C0.635456 12.7631 0.905707 12.875 1.1875 12.875H2.78125C2.92215 12.875 3.05727 12.819 3.1569 12.7194C3.25653 12.6198 3.3125 12.4846 3.3125 12.3438C3.3125 12.2029 3.25653 12.0677 3.1569 11.9681C3.05727 11.8685 2.92215 11.8125 2.78125 11.8125ZM0.65625 3.3125C0.797146 3.3125 0.932272 3.25653 1.0319 3.1569C1.13153 3.05727 1.1875 2.92215 1.1875 2.78125V1.1875H2.78125C2.92215 1.1875 3.05727 1.13153 3.1569 1.0319C3.25653 0.932272 3.3125 0.797146 3.3125 0.65625C3.3125 0.515354 3.25653 0.380228 3.1569 0.2806C3.05727 0.180971 2.92215 0.125 2.78125 0.125H1.1875C0.905707 0.125 0.635456 0.236942 0.436199 0.436199C0.236942 0.635456 0.125 0.905707 0.125 1.1875V2.78125C0.125 2.92215 0.180971 3.05727 0.2806 3.1569C0.380228 3.25653 0.515354 3.3125 0.65625 3.3125ZM9.6875 10.2188H3.3125C3.1716 10.2188 3.03648 10.1628 2.93685 10.0632C2.83722 9.96352 2.78125 9.8284 2.78125 9.6875V3.3125C2.78125 3.1716 2.83722 3.03648 2.93685 2.93685C3.03648 2.83722 3.1716 2.78125 3.3125 2.78125H9.6875C9.8284 2.78125 9.96352 2.83722 10.0632 2.93685C10.1628 3.03648 10.2188 3.1716 10.2188 3.3125V9.6875C10.2188 9.8284 10.1628 9.96352 10.0632 10.0632C9.96352 10.1628 9.8284 10.2188 9.6875 10.2188ZM9.15625 3.84375H3.84375V9.15625H9.15625V3.84375Z" fill="#828282"/>
</svg>
